<?xml version="1.0" standalone="no"?>
<!DOCTYPE svg PUBLIC "-//W3C//DTD SVG 20010904//EN"
 "http://www.w3.org/TR/2001/REC-SVG-20010904/DTD/svg10.dtd">
<svg version="1.0" xmlns="http://www.w3.org/2000/svg"
 width="500.000000pt" height="500.000000pt" viewBox="0 0 500.000000 500.000000"
 preserveAspectRatio="xMidYMid meet">

<g transform="translate(0.000000,500.000000) scale(0.100000,-0.100000)"
fill="#000000" stroke="none">
<path d="M2407 4633 c-14 -60 -33 -144 -43 -188 -9 -44 -21 -89 -27 -100 -15
-32 -59 -75 -76 -75 -10 0 -1 14 22 38 40 41 60 92 71 182 5 42 4 51 -4 40 -9
-11 -10 -2 -6 40 l5 55 -16 -50 c-8 -27 -26 -76 -39 -108 -13 -32 -24 -64 -24
-71 0 -17 -70 -86 -87 -86 -18 0 -16 10 4 26 29 20 8 28 -85 31 -48 1 -157 5
-242 9 -174 7 -348 -6 -398 -31 -42 -22 -41 -28 6 -22 33 5 31 4 -11 -9 -34
-11 -47 -20 -43 -30 3 -8 1 -14 -4 -14 -17 0 -50 -34 -50 -51 0 -14 10 -13 83
11 59 20 86 25 95 17 9 -7 16 -7 24 1 9 9 7 12 -7 12 -24 0 -17 5 17 14 21 5
28 2 33 -14 6 -19 -21 -77 -52 -108 -7 -7 -13 -22 -13 -32 0 -10 -4 -21 -9
-24 -5 -3 -11 -15 -14 -27 -6 -23 -6 -23 58 36 26 24 56 48 73 59 8 5 10 2 6
-8 -3 -8 -14 -18 -25 -21 -10 -4 -19 -11 -19 -16 0 -6 6 -7 13 -3 8 5 8 2 -2
-9 -7 -9 -10 -17 -7 -17 4 0 -2 -10 -13 -21 -11 -12 -28 -38 -37 -58 -9 -20
-27 -49 -39 -66 -12 -16 -22 -33 -21 -36 1 -3 -10 -16 -24 -30 -14 -13 -34
-42 -45 -64 -11 -22 -27 -46 -35 -53 -13 -12 -13 -13 0 -6 8 4 4 -5 -10 -20
-20 -22 -26 -25 -28 -11 -2 9 1 21 6 28 6 7 9 27 8 45 -1 18 1 35 6 38 13 8 9
21 -6 21 -8 0 -14 -3 -13 -6 2 -7 -22 -51 -37 -68 -25 -28 -34 -40 -47 -64 -7
-13 -14 -26 -15 -29 -1 -3 -5 -15 -9 -27 -4 -13 -12 -23 -17 -23 -6 0 -8 -7
-4 -15 3 -8 1 -15 -3 -15 -12 0 -76 -102 -72 -115 1 -5 -1 -7 -5 -3 -4 5 -15
-5 -25 -21 -14 -24 -23 -29 -44 -25 -14 2 -24 1 -23 -3 3 -16 -22 -63 -33 -63
-7 0 -10 -3 -6 -6 3 -4 -1 -13 -9 -21 -8 -8 -12 -19 -9 -24 4 -5 1 -9 -4 -9
-6 0 -11 -5 -11 -11 0 -5 5 -7 12 -3 7 4 8 3 4 -5 -4 -6 -11 -9 -15 -6 -5 2
-13 -7 -20 -22 -10 -22 -10 -25 5 -19 14 5 15 4 4 -9 -16 -19 -40 -20 -40 -1
0 47 84 337 115 396 13 25 27 100 19 100 -2 0 -11 -12 -19 -27 -10 -17 -14
-20 -11 -8 6 19 6 20 -9 1 -8 -10 -12 -22 -10 -27 6 -8 -13 -24 -29 -24 -4 0
-16 -18 -25 -40 -19 -47 -59 -110 -93 -145 -14 -14 -23 -31 -21 -37 2 -6 -1
-15 -8 -19 -8 -4 -9 -3 -5 4 5 8 1 10 -9 6 -9 -4 -14 -13 -11 -20 3 -7 -2 -17
-10 -22 -13 -8 -26 -46 -26 -82 -1 -8 -6 -22 -13 -30 -6 -8 -17 -30 -25 -47
-7 -18 -16 -30 -21 -27 -5 3 -9 -2 -9 -11 0 -9 -4 -13 -10 -10 -6 3 -7 -1 -4
-9 4 -11 0 -16 -11 -16 -9 0 -13 -5 -10 -11 4 -5 0 -25 -9 -43 -8 -18 -17 -47
-18 -64 -1 -18 -6 -32 -11 -32 -5 0 -5 -10 -2 -22 4 -16 3 -19 -3 -10 -7 11
-10 10 -16 -3 -9 -24 -8 -27 6 -19 11 6 11 4 1 -7 -18 -18 -16 -29 5 -30 13 0
13 -2 -4 -9 -25 -10 -41 -30 -25 -30 6 0 11 5 11 12 0 6 3 8 7 5 4 -4 -3 -21
-16 -37 -12 -17 -19 -35 -16 -40 3 -6 1 -10 -4 -10 -14 0 -14 17 4 127 16 97
87 391 105 432 14 31 5 39 -20 16 -13 -11 -20 -31 -20 -52 0 -21 -4 -32 -10
-28 -16 10 -40 -14 -40 -39 0 -11 -7 -29 -15 -39 -7 -11 -12 -27 -10 -38 2
-10 0 -19 -6 -19 -5 0 -9 -5 -9 -11 0 -5 5 -7 11 -3 14 8 -30 -73 -54 -100
-15 -17 -16 -22 -4 -31 15 -10 8 -47 -11 -59 -5 -3 -8 -19 -7 -35 1 -17 -2
-28 -6 -25 -4 2 -10 0 -14 -6 -3 -6 1 -13 9 -16 16 -6 23 -25 9 -23 -23 4 -33
-3 -33 -21 0 -11 -5 -20 -12 -20 -6 0 -4 -6 6 -13 13 -10 15 -18 7 -37 -8 -22
-10 -22 -11 -5 -1 16 -4 14 -15 -10 -12 -24 -14 -26 -16 -10 -3 37 3 140 8
149 4 5 1 6 -6 1 -10 -5 -10 -3 0 12 8 14 9 25 1 38 -9 17 -12 13 -22 -24 -15
-55 -32 -202 -30 -260 1 -51 -9 -105 -18 -96 -4 4 -8 11 -8 16 -3 22 -5 23
-14 9 -15 -24 -12 -53 5 -46 8 3 15 1 15 -3 0 -5 -5 -11 -12 -13 -24 -8 51
-392 93 -470 23 -43 65 -129 93 -191 27 -59 147 -223 245 -335 178 -203 431
-368 691 -451 109 -35 347 -83 530 -106 163 -21 567 -30 745 -17 351 27 713
138 1049 320 56 30 126 62 155 69 87 23 143 57 207 125 79 85 163 213 249 383
82 162 145 366 170 550 35 266 0 796 -71 1065 -69 261 -291 566 -539 742 -83
59 -258 144 -387 189 -89 32 -99 33 -248 33 -94 0 -196 -7 -260 -17 -106 -16
-374 -27 -386 -15 -12 13 27 104 76 177 55 84 54 95 -13 106 -23 4 -51 12 -62
18 -26 14 -65 18 -65 6 0 -5 -8 -9 -17 -9 -15 0 -15 2 -4 9 11 7 5 11 -22 16
-20 4 -42 5 -49 2 -7 -3 3 -6 22 -6 25 -1 31 -4 21 -10 -8 -5 -20 -7 -27 -4
-8 3 -18 -6 -25 -23 -13 -36 -27 -215 -24 -316 2 -51 -2 -83 -10 -95 -8 -10
-16 -16 -18 -13 -8 7 11 286 23 345 5 28 12 69 15 91 4 40 3 42 -26 48 -18 3
-35 6 -39 6 -5 0 -20 -48 -33 -107z m-282 -313 c3 -5 1 -10 -4 -10 -6 0 -11 5
-11 10 0 6 2 10 4 10 3 0 8 -4 11 -10z m934 -26 c2 -2 -12 -4 -33 -4 -22 0
-35 -4 -31 -10 3 -5 14 -10 24 -10 23 0 66 -40 73 -68 8 -29 -1 -28 -48 4 -21
15 -50 30 -64 34 -14 5 -32 11 -41 14 -10 5 -16 2 -16 -9 0 -8 4 -15 9 -15 12
0 38 -26 38 -38 0 -5 7 -15 15 -22 9 -7 13 -15 10 -18 -3 -3 1 -12 7 -20 7 -8
13 -21 14 -29 3 -15 -7 -9 -66 46 -21 20 -83 52 -210 109 -20 9 -8 10 59 5 62
-5 82 -3 77 5 -7 11 38 18 88 12 10 -1 15 3 12 8 -11 18 64 22 83 6z m71 -10
c0 -2 -9 -4 -20 -4 -11 0 -20 4 -20 9 0 5 9 7 20 4 11 -3 20 -7 20 -9z m-486
-35 c8 -12 12 -28 9 -35 -3 -8 0 -14 7 -14 6 0 8 -4 5 -10 -3 -5 -2 -10 3 -10
10 0 11 -6 17 -74 2 -27 6 -55 9 -63 3 -8 1 -11 -4 -8 -5 3 -28 44 -51 90 -23
47 -46 85 -51 85 -4 0 -8 6 -8 14 0 8 -4 17 -8 20 -5 3 -6 -8 -4 -25 2 -16 8
-32 13 -34 4 -3 3 -19 -3 -35 -6 -18 -14 -27 -21 -23 -8 4 -8 1 0 -9 7 -8 10
-18 7 -21 -13 -13 -47 41 -63 101 -8 28 -7 34 12 43 60 33 111 36 131 8z
m-328 -31 c-8 -13 -16 -32 -18 -43 -2 -11 -7 -23 -12 -26 -4 -4 -10 -24 -12
-45 -2 -22 -6 -52 -9 -69 -3 -16 -8 -43 -10 -60 -9 -56 -11 -63 -25 -81 -9
-11 -10 -15 -2 -10 17 10 15 1 -7 -42 -11 -20 -27 -53 -37 -74 -12 -24 -22
-34 -32 -30 -12 4 -14 22 -9 96 11 166 61 301 136 369 47 42 58 47 37 15z
m-425 -63 c-21 -20 -46 -51 -56 -70 -9 -20 -19 -34 -23 -31 -4 2 -8 -14 -8
-35 -2 -38 -60 -169 -75 -169 -5 0 -11 -16 -15 -35 -3 -19 -10 -35 -14 -35 -4
0 -20 19 -35 42 -27 41 -27 41 -10 77 40 85 134 195 225 264 50 38 57 33 11
-8z m225 10 c-1 -8 -9 -22 -18 -32 -8 -10 -18 -38 -21 -63 -3 -24 -11 -46 -16
-48 -6 -2 -11 -13 -11 -23 0 -11 -16 -50 -36 -87 -20 -37 -38 -78 -40 -92 -3
-14 -14 -37 -24 -52 -11 -15 -20 -34 -20 -43 0 -8 -5 -15 -12 -15 -6 0 -8 -3
-5 -7 4 -3 0 -17 -8 -30 -9 -13 -13 -29 -9 -35 4 -7 3 -8 -4 -4 -10 6 -14 -1
-14 -24 0 -3 -9 -14 -19 -25 -19 -19 -19 -18 -14 30 13 102 72 290 124 392 28
56 124 173 141 173 4 0 7 -7 6 -15z m982 -694 c15 -10 53 -31 85 -47 34 -16
71 -44 89 -66 35 -45 30 -50 -9 -8 -26 27 -92 59 -168 80 -48 13 -95 34 -95
41 0 7 25 14 58 18 8 0 26 -7 40 -18z m-1259 -35 c-2 -2 -17 -6 -34 -10 -22
-5 -26 -4 -15 4 14 9 59 15 49 6z m63 -51 c18 -8 41 -27 51 -40 l17 -24 -42
15 c-54 19 -98 11 -136 -24 -53 -49 -111 -92 -124 -92 -7 0 -22 -7 -32 -15
-27 -21 -34 -19 -32 9 0 13 4 22 8 20 4 -3 10 7 14 21 3 14 10 25 14 25 5 0
12 9 15 21 4 11 9 18 12 15 3 -3 19 13 34 34 30 41 44 49 52 28 3 -10 7 -10
20 1 9 7 14 18 11 23 -9 15 79 2 118 -17z m1446 -150 c-3 -3 -9 2 -12 12 -6
14 -5 15 5 6 7 -7 10 -15 7 -18z m-2388 -24 c0 -5 -6 -14 -14 -20 -12 -10 -14
-9 -11 6 2 10 4 19 4 21 2 6 21 1 21 -7z m2460 -78 c0 -6 3 -18 6 -27 14 -35
-17 -13 -37 27 -42 86 -43 95 -5 52 20 -22 36 -45 36 -52z m-1839 -1 c-5 -10
-18 -25 -28 -33 -12 -10 -11 -5 6 19 24 35 38 43 22 14z m869 -121 c13 -25 13
-42 -1 -18 -5 9 -17 17 -25 17 -8 0 -12 5 -9 10 10 16 23 12 35 -9z m-99 -159
c-15 -40 -37 -82 -49 -95 -11 -12 -28 -39 -36 -59 -9 -20 -20 -39 -26 -43 -5
-3 -17 -22 -26 -41 -9 -19 -18 -33 -20 -31 -3 2 2 17 10 32 8 16 12 33 9 38
-4 6 -1 7 7 2 10 -6 12 -4 7 9 -7 18 26 80 37 69 4 -4 5 -1 1 7 -3 9 6 23 24
35 18 12 36 37 46 65 20 54 37 91 41 87 2 -2 -9 -35 -25 -75z m240 -82 c5 0 9
-5 9 -11 0 -6 -4 -9 -9 -7 -10 4 -81 95 -81 105 0 3 16 -15 36 -40 20 -26 41
-47 45 -47z m-2014 -47 c-3 -10 -5 -2 -5 17 0 19 2 27 5 18 2 -10 2 -26 0 -35z
m-110 -15 c-3 -8 -6 -5 -6 6 -1 11 2 17 5 13 3 -3 4 -12 1 -19z m2193 -80 c51
-107 68 -158 53 -158 -5 0 -10 12 -11 27 -1 14 -25 71 -52 126 -52 104 -53
107 -45 107 3 0 28 -46 55 -102z m-2219 -26 c1 -51 -1 -96 -5 -99 -3 -3 -6 40
-6 97 0 127 8 129 11 2z m16 66 c-3 -8 -6 -5 -6 6 -1 11 2 17 5 13 3 -3 4 -12
1 -19z m1721 -138 c-5 -17 -14 -33 -19 -36 -11 -6 -12 10 -1 20 4 4 8 12 8 17
1 5 2 14 3 19 0 6 5 10 10 10 6 0 6 -12 -1 -30z m409 -56 c-3 -3 -12 -4 -19
-1 -8 3 -5 6 6 6 11 1 17 -2 13 -5z m56 -1 c-7 -2 -21 -2 -30 0 -10 3 -4 5 12
5 17 0 24 -2 18 -5z m44 1 c-3 -3 -12 -4 -19 -1 -8 3 -5 6 6 6 11 1 17 -2 13
-5z m746 -325 c-17 -51 -37 -81 -47 -72 -4 4 -4 0 -1 -9 5 -11 -6 -25 -38 -47
-50 -34 -79 -78 -31 -46 15 9 23 12 20 6 -4 -6 -2 -11 3 -11 6 0 11 -5 11 -11
0 -6 -7 -9 -14 -6 -10 4 -17 -2 -22 -16 -8 -28 -38 -57 -59 -57 -9 0 -18 -7
-21 -15 -4 -10 -13 -13 -26 -9 -13 4 -27 -2 -43 -18 -15 -15 -37 -25 -62 -26
-21 -2 -47 -12 -59 -22 -11 -11 -26 -20 -33 -20 -7 0 -10 -4 -7 -8 3 -5 -9 -6
-27 -4 -18 3 -29 1 -24 -4 4 -4 -11 -16 -34 -27 -32 -14 -47 -16 -69 -8 -16 5
-31 7 -35 3 -10 -10 -55 -10 -55 1 0 5 -7 4 -15 -3 -8 -7 -15 -9 -15 -4 0 4
-5 3 -12 -4 -14 -14 -88 -16 -88 -2 0 6 6 10 14 10 8 0 24 9 37 20 l24 19 -27
1 c-14 0 -29 6 -31 13 -3 6 -6 -1 -7 -18 l-2 -30 -9 35 c-22 79 -28 87 -72 93
-23 3 -73 11 -110 17 -38 7 -93 10 -123 8 -30 -1 -54 0 -54 3 0 11 113 17 165
9 28 -5 76 -10 109 -13 55 -4 57 -3 32 10 -22 11 -24 17 -16 33 6 10 15 22 20
25 11 6 -5 45 -22 56 -5 3 18 9 52 12 38 4 71 15 89 28 32 23 55 22 126 -4 40
-15 40 -16 56 -93 9 -44 18 -80 19 -81 1 -2 3 -7 4 -12 0 -5 4 -13 8 -17 10
-9 -10 -34 -27 -34 -19 0 -61 -37 -53 -46 4 -4 25 0 45 9 21 9 55 19 76 23 21
3 52 16 71 29 18 12 45 25 61 29 49 12 155 101 155 130 0 11 59 70 77 77 5 2
29 33 54 69 24 36 48 68 54 72 19 14 22 -3 8 -43z m-1513 -84 c0 -10 -46 -101
-57 -113 -7 -7 -13 -19 -13 -26 0 -8 -7 -20 -17 -27 -21 -18 -18 -11 32 90 34
67 55 97 55 76z m14 -143 c-1 -2 -10 -5 -19 -6 -9 -1 -20 -8 -25 -16 -11 -18
-41 -5 -34 15 4 9 12 14 19 11 7 -2 15 4 18 15 5 20 6 20 25 2 10 -10 18 -19
16 -21z m-127 -62 c7 -8 13 -19 13 -23 0 -14 -18 2 -42 36 -19 28 -20 30 -3
17 11 -8 25 -22 32 -30z m183 30 c0 -5 -4 -10 -10 -10 -5 0 -10 5 -10 10 0 6
5 10 10 10 6 0 10 -4 10 -10z m147 -142 c6 -5 20 -8 30 -7 10 1 25 -1 33 -4 8
-3 24 -8 35 -11 11 -3 -2 -3 -30 0 -50 4 -118 24 -132 38 -11 11 49 -5 64 -16z"/>
<path d="M1710 3320 c-9 -16 -8 -20 5 -20 9 0 14 4 11 9 -4 5 -1 11 6 13 9 3
9 6 1 11 -7 5 -17 -1 -23 -13z"/>
<path d="M1646 3254 c-5 -14 -4 -15 9 -4 17 14 19 20 6 20 -5 0 -12 -7 -15
-16z"/>
<path d="M2240 2695 c-7 -9 -10 -18 -7 -21 3 -3 10 4 17 15 13 25 8 27 -10 6z"/>
<path d="M2785 1750 c27 -12 43 -12 25 0 -8 5 -22 9 -30 9 -10 0 -8 -3 5 -9z"/>
<path d="M336 2651 c-4 -5 -2 -20 3 -33 8 -21 9 -20 9 10 -1 34 -3 38 -12 23z"/>
</g>
</svg>
